<?xml version="1.0" encoding="UTF-8" standalone="no"?>
<!-- Created with Inkscape (http://www.inkscape.org/) -->

<svg
   xmlns:dc="http://purl.org/dc/elements/1.1/"
   xmlns:cc="http://creativecommons.org/ns#"
   xmlns:rdf="http://www.w3.org/1999/02/22-rdf-syntax-ns#"
   xmlns:svg="http://www.w3.org/2000/svg"
   xmlns="http://www.w3.org/2000/svg"
   xmlns:sodipodi="http://sodipodi.sourceforge.net/DTD/sodipodi-0.dtd"
   xmlns:inkscape="http://www.inkscape.org/namespaces/inkscape"
   width="210mm"
   height="297mm"
   viewBox="0 0 744.09448819 1052.3622047"
   id="svg2"
   version="1.1"
   inkscape:version="0.91 r13725"
   sodipodi:docname="logo.svg">
  <defs
     id="defs4" />
  <sodipodi:namedview
     id="base"
     pagecolor="#ffffff"
     bordercolor="#666666"
     borderopacity="1.0"
     inkscape:pageopacity="0.0"
     inkscape:pageshadow="2"
     inkscape:zoom="0.98994949"
     inkscape:cx="282.32937"
     inkscape:cy="520"
     inkscape:document-units="px"
     inkscape:current-layer="layer1"
     showgrid="false"
     inkscape:window-width="1440"
     inkscape:window-height="871"
     inkscape:window-x="0"
     inkscape:window-y="0"
     inkscape:window-maximized="1" />
  <metadata
     id="metadata7">
    <rdf:RDF>
      <cc:Work
         rdf:about="">
        <dc:format>image/svg+xml</dc:format>
        <dc:type
           rdf:resource="http://purl.org/dc/dcmitype/StillImage" />
        <dc:title />
      </cc:Work>
    </rdf:RDF>
  </metadata>
  <g
     inkscape:label="Layer 1"
     inkscape:groupmode="layer"
     id="layer1">
    <path
       inkscape:connector-curvature="0"
       id="path4141"
       style="font-style:normal;font-variant:normal;font-weight:normal;font-stretch:normal;font-size:medium;line-height:125%;font-family:Saab;-inkscape-font-specification:Saab;letter-spacing:0px;word-spacing:0px;fill:#008000;fill-opacity:0.58823532;stroke:none;stroke-width:1px;stroke-linecap:butt;stroke-linejoin:miter;stroke-opacity:1"
       d="m 303.35676,355.19338 0,19.29869 -11.64329,0 q -6.54935,0 -9.1294,5.04542 -2.51389,5.0454 -2.51389,18.16347 l 0,12.48739 20.04498,0 0,18.03733 -20.04498,0 0,123.23411 -12.23869,0 0,-123.23411 -11.64329,0 0,-18.03733 11.64329,0 0,-9.83856 q 0,-23.58728 5.75549,-34.30878 5.75549,-10.84763 18.2588,-10.84763 l 11.51098,0 z"
       inkscape:export-xdpi="36"
       inkscape:export-ydpi="36" />
    <path
       inkscape:connector-curvature="0"
       id="path4143"
       style="font-style:normal;font-weight:normal;font-size:medium;line-height:125%;font-family:sans-serif;letter-spacing:0px;word-spacing:0px;fill:#0032d4;fill-opacity:0.39215687;stroke:none;stroke-width:6;stroke-linecap:square;stroke-linejoin:miter;stroke-opacity:0.39215687;stroke-miterlimit:4;stroke-dasharray:none"
       d="m 347.15142,593.33669 q -9.32787,-8.07265 -15.94337,-21.06458 -6.54936,-12.99193 -10.71712,-29.01111 -4.10162,-16.14531 -6.02011,-34.43491 -1.85235,-18.28961 -1.85235,-36.83149 0,-11.4783 0.99233,-23.08274 0.99232,-11.60444 2.91082,-22.70435 1.98465,-11.0999 4.89547,-21.31685 2.91083,-10.34308 6.74782,-19.17254 3.837,-8.82947 8.53401,-15.76691 4.76316,-7.06358 10.4525,-11.73058 l 0,6.8113 q -4.43239,3.65793 -8.07092,10.46923 -3.63853,6.68517 -6.4832,15.51463 -2.84466,8.70333 -4.96163,19.04642 -2.0508,10.21695 -3.37391,20.93844 -1.3231,10.72149 -1.91849,21.443 -0.52924,10.59535 -0.33077,20.05549 0.33077,14.12714 0.86001,26.11 0.52924,11.8567 1.52157,22.07365 1.05848,10.21696 2.77851,19.04643 1.72003,8.82947 4.36623,16.77598 2.71236,7.94652 6.4832,15.26237 3.83699,7.31584 9.1294,14.63168 l 0,6.93744 0,0 z"
       inkscape:export-xdpi="36"
       inkscape:export-ydpi="36" />
    <path
       inkscape:connector-curvature="0"
       id="path4145"
       style="font-style:normal;font-weight:normal;font-size:medium;line-height:125%;font-family:sans-serif;letter-spacing:0px;word-spacing:0px;fill:#880000;fill-opacity:0.58823532;stroke:none;stroke-width:1px;stroke-linecap:butt;stroke-linejoin:miter;stroke-opacity:1"
       d="m 429.97757,479.18431 q 0,-25.22705 -5.49087,-39.10192 -5.42472,-13.87488 -15.28182,-13.87488 -9.79096,0 -15.28183,13.87488 -5.42471,13.87487 -5.42471,39.10192 0,25.10092 5.42471,38.97578 5.49087,13.87488 15.28183,13.87488 9.8571,0 15.28182,-13.87488 5.49087,-13.87486 5.49087,-38.97578 z M 442.1501,533.927 q 0,36.07467 -8.40169,53.60746 -8.40169,17.65893 -25.73433,17.65893 -6.41704,0 -12.10637,-1.89202 -5.68934,-1.76589 -11.0479,-5.54996 l 0,-22.57819 q 5.35856,5.54994 10.58481,8.19878 5.22625,2.64885 10.65096,2.64885 11.97408,0 17.92803,-11.98285 5.95396,-11.85671 5.95396,-35.94854 l 0,-11.4783 q -3.77084,12.48738 -9.65864,18.668 -5.8878,6.18063 -14.09103,6.18063 -13.62795,0 -21.96349,-19.80323 -8.33553,-19.80323 -8.33553,-52.47225 0,-32.79515 8.33553,-52.59838 8.33554,-19.80323 21.96349,-19.80323 8.20323,0 14.09103,6.18062 5.8878,6.18062 9.65864,18.66801 l 0,-21.44298 12.17253,0 0,123.73865 z"
       inkscape:export-xdpi="36"
       inkscape:export-ydpi="36" />
    <path
       inkscape:connector-curvature="0"
       id="path4147"
       style="font-style:normal;font-weight:normal;font-size:medium;line-height:125%;font-family:sans-serif;letter-spacing:0px;word-spacing:0px;fill:#0032d4;fill-opacity:0.39215687;stroke:none;stroke-width:6;stroke-linecap:square;stroke-linejoin:miter;stroke-opacity:0.39215687;stroke-miterlimit:4;stroke-dasharray:none"
       d="m 471.65528,586.39925 q 5.22624,-7.31584 9.06324,-14.75782 3.83699,-7.31585 6.48319,-15.26236 2.71236,-7.94652 4.36624,-16.64985 1.72003,-8.82947 2.77851,-19.04643 1.05848,-10.21695 1.58773,-22.07365 0.52923,-11.98286 0.86001,-26.11 0.13231,-9.58628 -0.46309,-20.18163 -0.52924,-10.72149 -1.85234,-21.31686 -1.25695,-10.72149 -3.37391,-20.93844 -2.0508,-10.34309 -4.89547,-19.04642 -2.84467,-8.82946 -6.4832,-15.51463 -3.63853,-6.8113 -8.07091,-10.46923 l 0,-6.8113 q 5.62318,4.667 10.38634,11.73058 4.76316,7.06357 8.60016,15.89303 3.83699,8.70334 6.74782,19.04642 2.91082,10.21695 4.82932,21.31685 1.98464,11.09991 2.97698,22.70435 0.99232,11.60444 0.99232,23.08274 0,18.54188 -1.9185,36.83149 -1.85234,18.2896 -6.02011,34.43491 -4.10161,16.01918 -10.71712,29.01111 -6.54936,12.99193 -15.87721,21.06458 l 0,-6.93744 0,0 z"
       inkscape:export-xdpi="36"
       inkscape:export-ydpi="36" />
  </g>
</svg>
