<?xml version="1.0" encoding="UTF-8" standalone="no"?>
<!-- Created with Inkscape (http://www.inkscape.org/) -->

<svg
   xmlns:dc="http://purl.org/dc/elements/1.1/"
   xmlns:cc="http://creativecommons.org/ns#"
   xmlns:rdf="http://www.w3.org/1999/02/22-rdf-syntax-ns#"
   xmlns:svg="http://www.w3.org/2000/svg"
   xmlns="http://www.w3.org/2000/svg"
   xmlns:sodipodi="http://sodipodi.sourceforge.net/DTD/sodipodi-0.dtd"
   xmlns:inkscape="http://www.inkscape.org/namespaces/inkscape"
   width="210mm"
   height="297mm"
   viewBox="0 0 744.09448819 1052.3622047"
   id="svg2"
   version="1.1"
   inkscape:version="0.91 r13725"
   sodipodi:docname="logo.svg">
  <defs
     id="defs4" />
  <sodipodi:namedview
     id="base"
     pagecolor="#ffffff"
     bordercolor="#666666"
     borderopacity="1.0"
     inkscape:pageopacity="0.0"
     inkscape:pageshadow="2"
     inkscape:zoom="0.35"
     inkscape:cx="-703.2396"
     inkscape:cy="520"
     inkscape:document-units="px"
     inkscape:current-layer="layer1"
     showgrid="false"
     inkscape:window-width="1440"
     inkscape:window-height="871"
     inkscape:window-x="0"
     inkscape:window-y="0"
     inkscape:window-maximized="1" />
  <metadata
     id="metadata7">
    <rdf:RDF>
      <cc:Work
         rdf:about="">
        <dc:format>image/svg+xml</dc:format>
        <dc:type
           rdf:resource="http://purl.org/dc/dcmitype/StillImage" />
        <dc:title />
      </cc:Work>
    </rdf:RDF>
  </metadata>
  <g
     inkscape:label="Layer 1"
     inkscape:groupmode="layer"
     id="layer1">
    <g
       transform="scale(0.72420811,1.3808186)"
       style="font-style:normal;font-weight:normal;font-size:187.08100891px;line-height:125%;font-family:sans-serif;letter-spacing:0px;word-spacing:0px;fill:#c83737;fill-opacity:1;stroke:none;stroke-width:1px;stroke-linecap:butt;stroke-linejoin:miter;stroke-opacity:1"
       id="text4136">
      <path
         d="m 418.88065,257.23392 0,13.97627 -16.07728,0 q -9.04346,0 -12.60604,3.65393 -3.47123,3.65392 -3.47123,13.15413 l 0,9.04347 27.67849,0 0,13.06278 -27.67849,0 0,89.24714 -16.89941,0 0,-89.24714 -16.07727,0 0,-13.06278 16.07727,0 0,-7.12516 q 0,-17.0821 7.94729,-24.8467 7.94729,-7.85594 25.21209,-7.85594 l 15.89458,0 z"
         style="font-style:normal;font-variant:normal;font-weight:normal;font-stretch:normal;font-family:Saab;-inkscape-font-specification:Saab;fill:#008000;fill-opacity:0.78431373"
         id="path4141" />
      <path
         d="m 479.35312,429.69923 q -12.88009,-5.84628 -22.0149,-15.25514 -9.04347,-9.40886 -14.7984,-21.01008 -5.66359,-11.69256 -8.31268,-24.93804 -2.55775,-13.24548 -2.55775,-26.67366 0,-8.31268 1.37022,-16.71671 1.37022,-8.40403 4.01932,-16.44267 2.74044,-8.03864 6.75976,-15.43784 4.01932,-7.49054 9.31751,-13.88491 5.2982,-6.39437 11.78392,-11.41852 6.57706,-5.1155 14.433,-8.49538 l 0,4.9328 q -6.12032,2.6491 -11.14447,7.5819 -5.02415,4.84145 -8.95212,11.23582 -3.92797,6.30302 -6.85111,13.79357 -2.83179,7.3992 -4.65876,15.16379 -1.82696,7.76459 -2.64909,15.52919 -0.73079,7.67324 -0.45674,14.52435 0.45674,10.23099 1.18752,18.90907 0.73079,8.58672 2.10101,15.98592 1.46157,7.3992 3.83662,13.79358 2.37505,6.39437 6.02898,12.1493 3.74527,5.75493 8.95212,11.05313 5.29819,5.29819 12.60604,10.59638 l 0,5.02415 0,0 z"
         style="fill:#0032d4;fill-opacity:0.78431373"
         id="path4143" />
      <path
         d="m 593.72101,347.02915 q 0,-18.26963 -7.5819,-28.31792 -7.49055,-10.0483 -21.10142,-10.0483 -13.51953,0 -21.10143,10.0483 -7.49054,10.04829 -7.49054,28.31792 0,18.17829 7.49054,28.22658 7.5819,10.0483 21.10143,10.0483 13.61087,0 21.10142,-10.0483 7.5819,-10.04829 7.5819,-28.22658 z m 16.80806,39.6451 q 0,26.12557 -11.60122,38.82296 -11.60121,12.78874 -35.53443,12.78874 -8.86077,0 -16.71671,-1.37022 -7.85594,-1.27887 -15.25514,-4.01932 l 0,-16.35131 q 7.3992,4.01931 14.6157,5.93762 7.21651,1.91832 14.70705,1.91832 16.53402,0 24.75535,-8.67808 8.22134,-8.58672 8.22134,-26.03422 l 0,-8.31268 q -5.20685,9.04346 -13.33683,13.51952 -8.12999,4.47606 -19.45716,4.47606 -18.81772,0 -30.32759,-14.34166 -11.50986,-14.34166 -11.50986,-38.00083 0,-23.75051 11.50986,-38.09217 11.50987,-14.34166 30.32759,-14.34166 11.32717,0 19.45716,4.47606 8.12998,4.47605 13.33683,13.51952 l 0,-15.52918 16.80806,0 0,89.61253 z"
         style="fill:#880000;fill-opacity:0.78431373"
         id="path4145" />
      <path
         d="m 651.27036,424.67508 q 7.2165,-5.29819 12.51469,-10.68773 5.29819,-5.2982 8.95212,-11.05313 3.74527,-5.75493 6.02898,-12.05795 2.37505,-6.39438 3.83662,-13.79358 1.46157,-7.3992 2.19236,-15.98592 0.73078,-8.67808 1.18752,-18.90907 0.1827,-6.94246 -0.63944,-14.6157 -0.73078,-7.76459 -2.55774,-15.43784 -1.73562,-7.76459 -4.65876,-15.16379 -2.83179,-7.49055 -6.75976,-13.79357 -3.92797,-6.39437 -8.95212,-11.23582 -5.02415,-4.9328 -11.14447,-7.5819 l 0,-4.9328 q 7.76459,3.37988 14.34165,8.49538 6.57707,5.11549 11.87526,11.50986 5.2982,6.30303 9.31752,13.79357 4.01931,7.3992 6.66841,15.43784 2.74044,8.03864 4.11067,16.44267 1.37022,8.40403 1.37022,16.71671 0,13.42818 -2.6491,26.67366 -2.55775,13.24548 -8.31268,24.93804 -5.66358,11.60122 -14.7984,21.01008 -9.04347,9.40886 -21.92355,15.25514 l 0,-5.02415 0,0 z"
         style="fill:#0032d4;fill-opacity:0.78431373"
         id="path4147" />
    </g>
  </g>
</svg>
